# xmcd
#
# Track frame offsets: 
#        150
#        11778
#        23283
#        36685
#        48965
#        61258
#        75128
#        87398
#        99225
#        112053
#        127858
#        139545
#        150835
#        161123
#        175265
#        189000
#        205120
#        220663
#        231718
#        242573
#        254015
#        264533
#        277240
#
# Disc length: 3832 seconds
#
# Revision: 5
# Processed by: cddbd v1.5.2PL0 Copyright (c) Steve Scherf et al.
# Submitted via: ExactAudioCopy v0.99pb4
#
DISCID=320ef617
DTITLE=Various Artist - A Riot In Blues
DYEAR=1971
DGENRE=Blues
TTITLE0=Lightning Hopkins - I Wonder Why
TTITLE1=Lightning Hopkins - Buck Dance Boogie
TTITLE2=Lightning Hopkins - Hello Central
TTITLE3=Lightning Hopkins - Everything Happens To Me
TTITLE4=Sonny Terry and Brownie McGhee - Mean Ol' Frisco
TTITLE5=Sonny Terry and Brownie McGhee - Man Ain't Nothing But A Fool
TTITLE6=Sonny Terry and Brownie McGhee - The Woman Is Killing Me
TTITLE7=Sonny Terry and Brownie McGhee - Meet You In The morning
TTITLE8=Ray Charles - Why Did You Go?
TTITLE9=Ray Charles - I Found My Baby There
TTITLE10=Ray Charles - Guitar Blues
TTITLE11=James Wayne - Junco Partner
TTITLE12=James Wayne - Please, Baby, Please
TTITLE13=James Wayne - I'm A Real Gypsy Fellow
TTITLE14=James Wayne - If I Were A Millionaire
TTITLE15=Arbee Stidham - I Want To Rock
TTITLE16=Arbee Stidham - Feeling Blue And Low
TTITLE17=Arbee Stidham - I'm In the Mood
TTITLE18=Sonny Terry and Brownie McGhee - Stranger Blues
TTITLE19=Sonny Terry and Brownie McGhee - Feels So Good
TTITLE20=Sonny Terry and Brownie McGhee - Forgive Me
TTITLE21=Sonny Terry and Brownie McGhee - Sitting On Top Of The World
TTITLE22=Sonny Terry and Brownie McGhee - Key To The Highway
EXTD=YEAR: 1971
EXTT0=
EXTT1=
EXTT2=
EXTT3=
EXTT4=
EXTT5=
EXTT6=
EXTT7=
EXTT8=
EXTT9=
EXTT10=
EXTT11=
EXTT12=
EXTT13=
EXTT14=
EXTT15=
EXTT16=
EXTT17=
EXTT18=
EXTT19=
EXTT20=
EXTT21=
EXTT22=
PLAYORDER=
